HIERARCHY
ROOT joint_Root
{
	OFFSET 0.0 0.0 0.0
	CHANNELS 6 Xposition Yposition Zposition Zrotation Xrotation Yrotation 
	JOINT Hips
	{
		OFFSET 4.5925 91.4895 -427.239
		CHANNELS 6 Xposition Yposition Zposition Zrotation Xrotation Yrotation 
		JOINT Spine
		{
			OFFSET 15.7357 0.0 0.0
			CHANNELS 6 Xposition Yposition Zposition Zrotation Xrotation Yrotation 
			JOINT Chest
			{
				OFFSET 8.98455 -0.406207 0.0
				CHANNELS 6 Xposition Yposition Zposition Zrotation Xrotation Yrotation 
				JOINT Neck
				{
					OFFSET 16.3773 0.0 0.0
					CHANNELS 6 Xposition Yposition Zposition Zrotation Xrotation Yrotation 
					JOINT Head
					{
						OFFSET 6.45672 0.0 0.0
						CHANNELS 6 Xposition Yposition Zposition Zrotation Xrotation Yrotation 
						End Site
						{
							OFFSET 0.0 0.0 0.0
						}
					}
				}
				JOINT Shoulder_L
				{
					OFFSET 12.9942 -0.242716 4.98039
					CHANNELS 6 Xposition Yposition Zposition Zrotation Xrotation Yrotation 
					JOINT UpperArm_L
					{
						OFFSET 5.34809 0.0 0.0
						CHANNELS 6 Xposition Yposition Zposition Zrotation Xrotation Yrotation 
						JOINT LowerArm_L
						{
							OFFSET 24.3286 1.87007e-05 0.0
							CHANNELS 6 Xposition Yposition Zposition Zrotation Xrotation Yrotation 
							JOINT Hand_L
							{
								OFFSET 22.2916 0.0 0.0
								CHANNELS 6 Xposition Yposition Zposition Zrotation Xrotation Yrotation 
								End Site
								{
									OFFSET 0.0 0.0 0.0
								}
							}
						}
					}
				}
				JOINT Shoulder_R
				{
					OFFSET 12.9945 -0.242716 -4.98039
					CHANNELS 6 Xposition Yposition Zposition Zrotation Xrotation Yrotation 
					JOINT UpperArm_R
					{
						OFFSET -5.34813 0.0 0.0
						CHANNELS 6 Xposition Yposition Zposition Zrotation Xrotation Yrotation 
						JOINT LowerArm_R
						{
							OFFSET -24.3289 0.000322201 0.0
							CHANNELS 6 Xposition Yposition Zposition Zrotation Xrotation Yrotation 
							JOINT Hand_R
							{
								OFFSET -22.2915 -0.000108084 0.0
								CHANNELS 6 Xposition Yposition Zposition Zrotation Xrotation Yrotation 
								End Site
								{
									OFFSET 0.0 0.0 0.0
								}
							}
						}
					}
				}
			}
		}
		JOINT UpperLeg_L
		{
			OFFSET -2.19248 -6.46944 0.0
			CHANNELS 6 Xposition Yposition Zposition Zrotation Xrotation Yrotation 
			JOINT LowerLeg_L
			{
				OFFSET 39.0811 0.0 -1.23785e-05
				CHANNELS 6 Xposition Yposition Zposition Zrotation Xrotation Yrotation 
				JOINT Foot_L
				{
					OFFSET 40.9854 0.0 -1.26872e-05
					CHANNELS 6 Xposition Yposition Zposition Zrotation Xrotation Yrotation 
					JOINT Toes_L
					{
						OFFSET 11.7543 0.0 0.0
						CHANNELS 6 Xposition Yposition Zposition Zrotation Xrotation Yrotation 
						End Site
						{
							OFFSET 0.0 0.0 0.0
						}
					}
				}
			}
		}
		JOINT UpperLeg_R
		{
			OFFSET -2.19251 6.46944 0.0
			CHANNELS 6 Xposition Yposition Zposition Zrotation Xrotation Yrotation 
			JOINT LowerLeg_R
			{
				OFFSET -39.0811 -0.00228153 -0.0401928
				CHANNELS 6 Xposition Yposition Zposition Zrotation Xrotation Yrotation 
				JOINT Foot_R
				{
					OFFSET -40.9854 0.0 0.0
					CHANNELS 6 Xposition Yposition Zposition Zrotation Xrotation Yrotation 
					JOINT Toes_R
					{
						OFFSET -11.7543 0.0 0.0
						CHANNELS 6 Xposition Yposition Zposition Zrotation Xrotation Yrotation 
						End Site
						{
							OFFSET 0.0 0.0 0.0
						}
					}
				}
			}
		}
	}
}
MOTION
Frames:	4
Frame Time:	0.0333333
0.000000 0.000000 0.000000 0.000000 0.000000 -0.000000 -0.378017 85.916000 -0.898992 90.573000 -5.096480 7.787480 15.735700 0.000005 -0.000001 90.734800 82.157000 -91.155200 8.984550 -0.406207 -0.000000 7.919620 0.199757 -0.853815 16.377300 -0.000001 -0.000001 -1.979990 -0.635952 -0.162672 6.456720 -0.000001 -0.000000 -1.011070 -0.972250 2.914930 12.994200 -0.242716 4.980390 -91.446200 5.215070 -74.477100 5.348090 -0.000007 -0.000001 -67.391400 21.179400 -12.040100 24.328600 0.000019 0.000005 11.296700 16.743200 -34.737000 22.291600 -0.000001 0.000005 10.193300 5.251640 1.388280 12.994500 -0.242716 -4.980390 88.378400 10.107600 -80.836500 -5.348130 -0.000001 -0.000004 -58.773500 38.122900 -10.618500 -24.328900 0.000322 -0.000009 0.941432 1.558810 -31.191800 -22.291500 -0.000108 -0.000004 19.323900 5.497540 -6.434650 -2.192480 -6.469440 -0.000000 -175.267000 -16.892200 -12.006600 39.081100 -0.000007 -0.000012 -0.326780 0.269407 50.497600 40.985400 -0.000006 -0.000013 2.172440 7.308980 -80.319500 11.754300 -0.000000 0.000003 -0.000590 -0.004567 -16.743400 -2.192510 6.469440 -0.000001 175.186000 13.603500 166.884000 -39.081100 -0.002282 -0.040193 0.057252 -0.042509 51.796100 -40.985400 0.000008 0.000006 6.996600 7.132750 -80.833700 -11.754300 -0.000006 -0.000006 -0.661231 -0.813800 -16.897400
0.000000 0.000000 0.000000 0.000000 0.000000 -0.000000 -0.234097 86.863100 -0.268576 91.100900 -6.342820 8.433550 15.735700 0.000005 -0.000001 91.614100 82.488000 -91.558200 8.984550 -0.406207 -0.000000 7.251950 0.421395 0.084956 16.377300 -0.000001 -0.000001 -0.022941 -0.837824 -0.225084 6.456720 -0.000001 -0.000000 0.754812 -1.006580 2.325950 12.994200 -0.242716 4.980390 -91.209700 4.100770 -73.547900 5.348090 -0.000007 -0.000001 -63.570000 16.787800 -16.587300 24.328600 0.000019 0.000005 13.546400 15.592900 -41.871800 22.291600 -0.000001 0.000005 9.894170 5.280560 0.611191 12.994500 -0.242716 -4.980390 88.376400 9.494290 -80.249500 -5.348130 -0.000001 -0.000004 -61.490700 34.773300 -9.247620 -24.328900 0.000322 -0.000009 2.065790 3.918170 -27.842100 -22.291500 -0.000108 -0.000004 19.902900 5.453990 -4.786220 -2.192480 -6.469440 -0.000000 -175.708000 -17.070300 -8.874090 39.081100 -0.000007 -0.000012 -0.317210 0.298505 46.740800 40.985400 -0.000006 -0.000013 1.604460 6.362010 -79.024300 11.754300 -0.000000 0.000003 -0.000583 -0.004527 -16.742000 -2.192510 6.469440 -0.000001 174.197000 13.414300 169.261000 -39.081100 -0.002282 -0.040193 0.048727 -0.039799 48.807900 -40.985400 0.000008 0.000006 7.082500 8.476320 -79.442000 -11.754300 -0.000006 -0.000006 -0.780734 -0.960528 -17.112400
0.000000 0.000000 0.000000 0.000000 0.000000 -0.000000 -0.239620 88.382100 0.338968 91.300100 -7.119630 8.419010 15.735700 0.000005 -0.000001 91.441300 83.173300 -90.697700 8.984550 -0.406207 -0.000000 5.881490 0.330329 1.468590 16.377300 -0.000001 -0.000001 2.720110 -1.320730 -0.433394 6.456720 -0.000001 -0.000000 2.503590 -1.387350 1.748410 12.994200 -0.242716 4.980390 -90.822200 2.623390 -72.589900 5.348090 -0.000007 -0.000001 -56.306900 11.002100 -24.041300 24.328600 0.000019 0.000005 15.828800 13.227900 -51.093300 22.291600 -0.000001 0.000005 11.408100 5.332390 -0.847682 12.994500 -0.242716 -4.980390 88.309000 8.965960 -79.273200 -5.348130 -0.000001 -0.000004 -63.001300 32.828500 -7.697730 -24.328900 0.000322 -0.000009 1.023970 2.191200 -25.065900 -22.291500 -0.000108 -0.000004 20.060400 5.435280 -4.121620 -2.192480 -6.469440 -0.000000 -176.216000 -16.067100 -5.378720 39.081100 -0.000007 -0.000012 -0.291319 0.340626 40.539200 40.985400 -0.000006 -0.000013 0.671683 4.873100 -76.393000 11.754300 -0.000000 0.000003 -0.000487 -0.003896 -16.720100 -2.192510 6.469440 -0.000001 173.714000 13.922100 172.313000 -39.081100 -0.002282 -0.040193 0.037881 -0.036741 43.290800 -40.985400 0.000008 0.000006 7.137000 10.014900 -76.952200 -11.754300 -0.000006 -0.000006 -0.741846 -0.909922 -17.337100
0.000000 0.000000 0.000000 0.000000 0.000000 -0.000000 -0.435665 89.772400 0.768550 91.134800 -7.039390 8.014360 15.735700 0.000005 -0.000001 89.311800 83.982300 -87.777500 8.984550 -0.406207 -0.000000 4.272840 -0.191036 3.072280 16.377300 -0.000001 -0.000001 5.431950 -2.391240 -0.426608 6.456720 -0.000001 -0.000000 4.308800 -2.234140 1.215820 12.994200 -0.242716 4.980390 -90.282800 0.887362 -72.326100 5.348090 -0.000007 -0.000001 -48.174800 0.142890 -33.037700 24.328600 0.000019 0.000005 13.398000 7.984400 -59.769400 22.291600 -0.000001 0.000005 15.476100 5.377660 -2.205650 12.994500 -0.242716 -4.980390 88.243000 8.293630 -77.994000 -5.348130 -0.000001 -0.000004 -63.326600 31.972800 -5.706280 -24.328900 0.000322 -0.000009 0.322456 0.710454 -24.483700 -22.291500 -0.000108 -0.000004 18.474100 5.450040 -4.643820 -2.192480 -6.469440 -0.000000 -176.161000 -15.435500 -2.339090 39.081100 -0.000007 -0.000012 -0.244712 0.359969 34.208900 40.985400 -0.000006 -0.000013 0.128381 4.525210 -73.497900 11.754300 -0.000000 0.000003 -0.000396 -0.003278 -16.698500 -2.192510 6.469440 -0.000001 173.640000 15.465200 175.429000 -39.081100 -0.002282 -0.040193 0.027743 -0.032234 37.188800 -40.985400 0.000008 0.000006 7.088510 11.707800 -74.508600 -11.754300 -0.000006 -0.000006 -0.559900 -0.687207 -17.355800
